<?xml version="1.0" encoding="UTF-8"?><svg id="Layer_1" xmlns="http://www.w3.org/2000/svg" xmlns:xlink="http://www.w3.org/1999/xlink" viewBox="0 0 386.67 483.92"><defs><style>.cls-1{fill:none;}.cls-2{clip-path:url(#clippath);}.cls-3{fill:#ffde59;}.cls-4{clip-path:url(#clippath-1);}.cls-5{clip-path:url(#clippath-4);}.cls-6{clip-path:url(#clippath-3);}.cls-7{clip-path:url(#clippath-2);}.cls-8{clip-path:url(#clippath-5);}.cls-9{fill:#201e8b;fill-rule:evenodd;}</style><clipPath id="clippath"><rect class="cls-1" width="386.67" height="426.67"/></clipPath><clipPath id="clippath-1"><rect class="cls-1" x="-6.59" y="2.15" width="400.8" height="404.8" transform="translate(-59.61 81.32) rotate(-20.61)"/></clipPath><clipPath id="clippath-2"><rect class="cls-1" x="-6.59" y="2.15" width="400.8" height="404.8" transform="translate(-59.61 81.32) rotate(-20.61)"/></clipPath><clipPath id="clippath-3"><rect class="cls-1" x="24" y="178.67" width="329.33" height="306.67"/></clipPath><clipPath id="clippath-4"><rect class="cls-1" x="49.77" y="143.41" width="291.86" height="327.84" transform="translate(-129.21 142.46) rotate(-30.61)"/></clipPath><clipPath id="clippath-5"><rect class="cls-1" x="49.77" y="143.41" width="291.86" height="327.84" transform="translate(-129.21 142.46) rotate(-30.61)"/></clipPath></defs><g class="cls-2"><g class="cls-4"><g class="cls-7"><path class="cls-3" d="M269.34,.64c29.76,3.74,42.58,33.43,49.8,59.67,8.05,29.33,21.09,41.1,43.96,59.79,18.56,15.17,24.95,33.26,22.15,57.79-3.43,29.67-28.22,33.18-35.17,58.78-6.48,23.76,10.15,49.69,5.13,74.23-5.07,24.64-24.77,38.18-47.61,45.54-31.15,9.97-65.69,4.96-94.6,22.22-23.29,13.91-39.11,49.64-70.36,46.55-58.46-5.8-45.74-97.37-67.64-133.77C51.23,252.08-19.72,205.59,6.59,149.24c11.59-24.93,44.52-26.2,66.82-35.01,31.04-12.26,36.46-26.49,48.59-55.94,11.64-28.35,15.1-48.66,47.78-51.49,19.58-1.72,32.57,20.93,45.96,21.04,16.65-.04,36.69-29.4,53.59-27.21Z"/></g></g></g><g class="cls-6"><g class="cls-5"><g class="cls-8"><path class="cls-9" d="M317.04,244.3c29.43,31.3,42.63,78,32.23,119.83-10.53,42.36-47.37,70.69-84.17,91.36-17.93,10.07-37.84,19.87-58.14,25.08-20.32,5.22-41.26,5.92-61.04-2.53-19.12-8.17-28.58-25.15-35.75-43.31-2.15-5.45-4.16-11.21-6.17-16.93-1.3-3.73-2.6-7.43-3.92-11.03-3.42-9.27-7.14-18.16-11.99-26.05-5.03-8.18-11.53-15.78-18.52-23.28-2.7-2.89-5.52-5.81-8.34-8.74-4.38-4.54-8.79-9.11-12.84-13.66-13.46-15.12-24.7-31.79-23.11-53.23,3.26-44.1,37.14-85.94,79.03-99.77,20.07-6.63,38.61,.26,56.17,9.49,4.92,2.58,10.01,5.49,15.06,8.39,3.82,2.18,7.61,4.35,11.3,6.36,8.81,4.81,17.6,9.06,26.61,11.7,8.39,2.46,17.29,3.65,26.45,4.42,4.1,.34,8.21,.61,12.35,.88,.48,.03,.96,.06,1.45,.09,4.61,.29,9.24,.6,13.81,1.04,18.18,1.76,36.1,5.62,49.51,19.89Zm28.72,118.96c10.08-40.58-2.72-86.03-31.35-116.48-15.91-16.92-38.8-18.39-62.37-19.89-13.36-.85-26.95-1.72-39.59-5.43-13.46-3.95-26.24-11.27-38.82-18.47-22.5-12.89-44.34-25.39-68.17-17.52-40.56,13.4-73.42,54.02-76.56,96.6-1.91,25.89,16.21,44.68,34.85,64.02,9.99,10.36,20.14,20.89,27.43,32.74,7.05,11.47,11.7,24.79,16.29,37.91,8.54,24.42,16.83,48.15,39.88,57.98,37.63,16.07,80.29-2.33,115.98-22.38,36.67-20.6,72.29-48.28,82.43-89.08Z"/></g></g></g></svg>