<?xml version="1.0" encoding="UTF-8"?><svg id="Layer_1" xmlns="http://www.w3.org/2000/svg" xmlns:xlink="http://www.w3.org/1999/xlink" viewBox="0 0 294 419.49"><defs><style>.cls-1{fill:none;}.cls-2{clip-path:url(#clippath);}.cls-3{fill:#ffde59;}.cls-4{clip-path:url(#clippath-1);}.cls-5{clip-path:url(#clippath-4);}.cls-6{clip-path:url(#clippath-3);}.cls-7{clip-path:url(#clippath-2);}.cls-8{clip-path:url(#clippath-5);}.cls-9{fill:#201e8b;fill-rule:evenodd;}</style><clipPath id="clippath"><rect class="cls-1" x="-144" y="104.16" width="429.33" height="300"/></clipPath><clipPath id="clippath-1"><rect class="cls-1" x="-110.71" y="-3.5" width="346.83" height="412.8" transform="translate(-138.52 135.01) rotate(-54.18)"/></clipPath><clipPath id="clippath-2"><rect class="cls-1" x="-110.71" y="-3.5" width="346.83" height="412.8" transform="translate(-138.52 135.01) rotate(-54.18)"/></clipPath><clipPath id="clippath-3"><rect class="cls-1" x="-45.33" y="29.49" width="241.33" height="276"/></clipPath><clipPath id="clippath-4"><rect class="cls-1" x="-42.05" y="48.96" width="269.87" height="239.88" transform="translate(-98.06 195.25) rotate(-69.05)"/></clipPath><clipPath id="clippath-5"><rect class="cls-1" x="-42.05" y="48.96" width="269.87" height="239.88" transform="translate(-98.06 195.25) rotate(-69.05)"/></clipPath></defs><g class="cls-2"><g class="cls-4"><g class="cls-7"><path class="cls-3" d="M284.33,199.72c-1.46-41.55-83.63-111.09-170.77-90.6s-130.53,20.77-182.08,21.76c-72.22,1.29-117.84,87.94-12.69,172.92,105.15,84.98,180.45,128.42,230.43,79.29,49.98-49.13,9.51-58.33,44.73-94.56,35.11-36.21,92.01-42.34,90.38-88.8Z"/></g></g></g><g class="cls-6"><g class="cls-5"><g class="cls-8"><path class="cls-9" d="M195.46,214.81c-5.13,34.99-28.47,67.4-60.72,82.11-32.67,14.91-69.73,5.67-101.84-7.45-15.65-6.4-32.13-14.21-45.85-24.61-13.74-10.42-24.89-23.56-29.55-40.63-4.51-16.5,1.6-31.29,9.64-45.21,2.41-4.18,5.09-8.43,7.76-12.65,1.73-2.74,3.46-5.48,5.1-8.17,4.23-6.95,8.05-13.9,10.66-21.06,2.7-7.43,4.28-15.51,5.54-23.85,.48-3.22,.93-6.53,1.37-9.85,.69-5.15,1.39-10.32,2.24-15.27,2.86-16.41,7.86-32.19,22.48-42.15,30.07-20.48,74.33-20.07,104.64-.16,14.52,9.54,19.56,25.01,22.58,41.06,.85,4.49,1.57,9.27,2.29,14,.54,3.58,1.08,7.14,1.67,10.54,1.41,8.14,3.16,15.97,6.06,23.14,2.7,6.67,6.48,13.01,10.66,19.31,1.88,2.82,3.81,5.6,5.75,8.41,.22,.33,.45,.66,.68,.98,2.17,3.12,4.33,6.26,6.38,9.43,8.16,12.61,14.82,26.14,12.48,42.08Zm-61.95,79.41c31.29-14.28,54.02-45.8,59.01-79.84,2.77-18.91-7.98-34.42-19.05-50.37-6.28-9.05-12.65-18.24-16.72-28.29-4.33-10.69-6.15-22.68-7.93-34.47-3.19-21.09-6.29-41.57-23.54-52.9-29.35-19.28-72.3-19.65-101.33,.13C6.3,60.51,3.45,81.81,.52,103.72c-1.57,11.75-3.16,23.67-7.08,34.44-3.78,10.41-9.98,20.23-16.09,29.9-11.37,18.01-22.42,35.5-16.98,55.39,8.87,32.47,42.51,50.54,73.65,63.27,32,13.08,68.03,21.86,99.49,7.51Z"/></g></g></g></svg>